<svg width="46" height="45" viewBox="0 0 46 45" fill="none" xmlns="http://www.w3.org/2000/svg">
<path d="M22.5735 22.7589C22.619 22.8082 22.6638 22.8569 22.7079 22.9048V22.6128C26.2575 18.7516 33.4034 10.8174 34.3018 6.14273C34.49 5.16812 34.408 4.14357 34.0285 3.22344C32.9292 0.565959 29.3475 -0.665927 26.5158 0.360139C25.5215 0.533017 23.1613 1.55173 22.5735 1.80965C21.9857 1.55173 19.6255 0.533017 18.6312 0.360139C15.7996 -0.665927 12.2178 0.565959 11.1186 3.22344C10.739 4.14357 10.657 5.16812 10.8453 6.14273C11.7436 10.8174 18.8895 18.7516 22.4391 22.6128V22.9048C22.4833 22.8569 22.5281 22.8082 22.5735 22.7589Z" fill="#54FFB1"/>
<path d="M22.5735 22.2411C22.619 22.1918 22.6638 22.1431 22.7079 22.0952V22.3872C26.2575 26.2484 33.4034 34.1826 34.3018 38.8573C34.49 39.8319 34.408 40.8564 34.0285 41.7766C32.9292 44.434 29.3475 45.6659 26.5158 44.6399C25.5215 44.467 23.1613 43.4483 22.5735 43.1904C21.9857 43.4483 19.6255 44.467 18.6312 44.6399C15.7996 45.6659 12.2178 44.434 11.1186 41.7766C10.739 40.8564 10.657 39.8319 10.8453 38.8573C11.7436 34.1826 18.8895 26.2484 22.4391 22.3872V22.0952C22.4833 22.1431 22.5281 22.1918 22.5735 22.2411Z" fill="#54FFB1"/>
<path d="M22.8332 22.5C22.8828 22.5453 22.9316 22.5899 22.9797 22.6339H22.6867C18.8128 26.172 10.8527 33.2946 6.1628 34.19C5.18501 34.3777 4.1571 34.2975 3.23397 33.9176C0.567803 32.8219 -0.668107 29.2519 0.361312 26.4295C0.534756 25.4384 1.55679 23.0859 1.81556 22.5C1.55679 21.9141 0.534756 19.5616 0.361312 18.5705C-0.668107 15.7481 0.567803 12.178 3.23397 11.0824C4.1571 10.704 5.18501 10.6238 6.1628 10.81C10.8527 11.7053 18.8128 18.828 22.6867 22.3661H22.9797C22.9316 22.41 22.8828 22.4547 22.8332 22.5Z" fill="#54FFB1"/>
<path d="M22.3138 22.5C22.2643 22.5453 22.2155 22.5899 22.1674 22.6339H22.4604C26.3342 26.172 34.2943 33.2946 38.9842 34.19C39.962 34.3777 40.9899 34.2975 41.9131 33.9176C44.5792 32.8219 45.8152 29.2519 44.7857 26.4295C44.6123 25.4384 43.5903 23.0859 43.3315 22.5C43.5903 21.9141 44.6123 19.5616 44.7857 18.5705C45.8152 15.7481 44.5792 12.178 41.9131 11.0824C40.9899 10.704 39.962 10.6238 38.9842 10.81C34.2943 11.7053 26.3342 18.828 22.4604 22.3661H22.1674C22.2155 22.41 22.2643 22.4547 22.3138 22.5Z" fill="#54FFB1"/>
<path d="M22.588 13.2412V31.099" stroke="#50806A" stroke-miterlimit="10" stroke-linecap="round" stroke-linejoin="round"/>
<path d="M13.9381 22.4781H31.8543" stroke="#50806A" stroke-miterlimit="10" stroke-linecap="round" stroke-linejoin="round"/>
</svg>
