<svg width="246" height="45" viewBox="0 0 246 45" fill="none" xmlns="http://www.w3.org/2000/svg">
<path d="M22.5735 22.7589C22.619 22.8082 22.6638 22.8569 22.7079 22.9048V22.6128C26.2575 18.7516 33.4034 10.8174 34.3018 6.14272C34.49 5.16811 34.408 4.14356 34.0285 3.22343C32.9292 0.565955 29.3475 -0.665931 26.5158 0.360135C25.5215 0.533014 23.1613 1.55172 22.5735 1.80964C21.9857 1.55172 19.6255 0.533014 18.6312 0.360135C15.7996 -0.665931 12.2178 0.565955 11.1186 3.22343C10.739 4.14356 10.657 5.16811 10.8453 6.14272C11.7436 10.8174 18.8895 18.7516 22.4391 22.6128V22.9048C22.4833 22.8569 22.5281 22.8082 22.5735 22.7589Z" fill="#54FFB1"/>
<path d="M22.5735 22.2411C22.619 22.1918 22.6638 22.1431 22.7079 22.0952V22.3872C26.2575 26.2484 33.4034 34.1826 34.3018 38.8573C34.49 39.8319 34.408 40.8564 34.0285 41.7766C32.9292 44.434 29.3475 45.6659 26.5158 44.6399C25.5215 44.467 23.1613 43.4483 22.5735 43.1903C21.9857 43.4483 19.6255 44.467 18.6312 44.6399C15.7996 45.6659 12.2178 44.434 11.1186 41.7766C10.739 40.8564 10.657 39.8319 10.8453 38.8573C11.7436 34.1826 18.8895 26.2484 22.4391 22.3872V22.0952C22.4833 22.1431 22.5281 22.1918 22.5735 22.2411Z" fill="#54FFB1"/>
<path d="M22.8332 22.5C22.8828 22.5453 22.9316 22.5899 22.9797 22.6339H22.6867C18.8128 26.172 10.8527 33.2946 6.1628 34.19C5.18501 34.3777 4.1571 34.2975 3.23397 33.9176C0.567803 32.8219 -0.668107 29.2519 0.361312 26.4295C0.534756 25.4384 1.55679 23.0859 1.81556 22.5C1.55679 21.9141 0.534756 19.5616 0.361312 18.5705C-0.668107 15.7481 0.567803 12.178 3.23397 11.0824C4.1571 10.704 5.18501 10.6238 6.1628 10.81C10.8527 11.7053 18.8128 18.828 22.6867 22.3661H22.9797C22.9316 22.41 22.8828 22.4547 22.8332 22.5Z" fill="#54FFB1"/>
<path d="M22.3138 22.5C22.2643 22.5453 22.2155 22.5899 22.1674 22.6339H22.4604C26.3342 26.172 34.2943 33.2946 38.9842 34.19C39.962 34.3777 40.9899 34.2975 41.9131 33.9176C44.5792 32.8219 45.8152 29.2519 44.7857 26.4295C44.6123 25.4384 43.5903 23.0859 43.3315 22.5C43.5903 21.9141 44.6123 19.5616 44.7857 18.5705C45.8152 15.7481 44.5792 12.178 41.9131 11.0824C40.9899 10.704 39.962 10.6238 38.9842 10.81C34.2943 11.7053 26.3342 18.828 22.4604 22.3661H22.1674C22.2155 22.41 22.2643 22.4547 22.3138 22.5Z" fill="#54FFB1"/>
<path d="M22.588 13.2412V31.099" stroke="#50806A" stroke-miterlimit="10" stroke-linecap="round" stroke-linejoin="round"/>
<path d="M13.9381 22.4781H31.8543" stroke="#50806A" stroke-miterlimit="10" stroke-linecap="round" stroke-linejoin="round"/>
<path d="M68.487 11.82C70.095 11.82 71.523 12.216 72.771 13.008C74.019 13.8 75.0031 14.892 75.7231 16.284C76.4671 17.652 76.8391 19.224 76.8391 21C76.8391 22.752 76.4671 24.324 75.7231 25.716C75.0031 27.108 74.0071 28.212 72.735 29.028C71.487 29.82 70.071 30.216 68.487 30.216C67.695 30.216 66.927 30.108 66.183 29.892C65.463 29.652 64.791 29.328 64.167 28.92C63.543 28.488 62.967 27.96 62.439 27.336C61.935 26.712 61.491 26.004 61.107 25.212L61.575 24.708V36.48C61.575 36.672 61.503 36.84 61.359 36.984C61.239 37.128 61.071 37.2 60.855 37.2C60.663 37.2 60.495 37.128 60.351 36.984C60.207 36.84 60.135 36.672 60.135 36.48V12.54C60.135 12.348 60.195 12.18 60.315 12.036C60.459 11.892 60.639 11.82 60.855 11.82C61.071 11.82 61.239 11.892 61.359 12.036C61.503 12.18 61.575 12.348 61.575 12.54V17.148L61.107 16.896C61.443 16.008 61.863 15.24 62.367 14.592C62.871 13.944 63.447 13.416 64.095 13.008C64.743 12.6 65.439 12.3 66.183 12.108C66.927 11.916 67.695 11.82 68.487 11.82ZM68.415 13.188C67.047 13.188 65.835 13.524 64.779 14.196C63.747 14.868 62.931 15.792 62.331 16.968C61.731 18.12 61.431 19.464 61.431 21C61.431 22.512 61.731 23.868 62.331 25.068C62.931 26.244 63.747 27.168 64.779 27.84C65.835 28.512 67.047 28.848 68.415 28.848C69.759 28.848 70.947 28.512 71.9791 27.84C73.0351 27.168 73.8631 26.244 74.4631 25.068C75.0871 23.868 75.399 22.512 75.399 21C75.399 19.488 75.0871 18.144 74.4631 16.968C73.8631 15.792 73.0351 14.868 71.9791 14.196C70.947 13.524 69.759 13.188 68.415 13.188ZM96.1938 12.036C96.4098 12.036 96.5778 12.108 96.6978 12.252C96.8418 12.396 96.9138 12.564 96.9138 12.756V29.28C96.9138 29.472 96.8418 29.64 96.6978 29.784C96.5538 29.928 96.3858 30 96.1938 30C95.9778 30 95.7978 29.928 95.6538 29.784C95.5338 29.64 95.4738 29.472 95.4738 29.28V24.168L96.0498 23.7C96.0498 24.468 95.8578 25.248 95.4738 26.04C95.0898 26.832 94.5618 27.552 93.8898 28.2C93.2178 28.848 92.4258 29.376 91.5138 29.784C90.6018 30.168 89.6178 30.36 88.5618 30.36C86.9538 30.36 85.5138 29.94 84.2418 29.1C82.9938 28.26 82.0098 27.12 81.2898 25.68C80.5698 24.24 80.2098 22.62 80.2098 20.82C80.2098 18.996 80.5698 17.388 81.2898 15.996C82.0338 14.58 83.0298 13.476 84.2778 12.684C85.5498 11.868 86.9778 11.46 88.5618 11.46C89.5938 11.46 90.5658 11.652 91.4778 12.036C92.3898 12.396 93.1818 12.912 93.8538 13.584C94.5498 14.256 95.0898 15.048 95.4738 15.96C95.8578 16.848 96.0498 17.82 96.0498 18.876L95.4738 17.976V12.756C95.4738 12.564 95.5338 12.396 95.6538 12.252C95.7978 12.108 95.9778 12.036 96.1938 12.036ZM88.6338 28.992C89.9778 28.992 91.1778 28.644 92.2338 27.948C93.2898 27.228 94.1178 26.256 94.7178 25.032C95.3178 23.784 95.6178 22.38 95.6178 20.82C95.6178 19.332 95.3178 17.988 94.7178 16.788C94.1178 15.564 93.2898 14.604 92.2338 13.908C91.1778 13.188 89.9778 12.828 88.6338 12.828C87.3138 12.828 86.1258 13.176 85.0698 13.872C84.0138 14.544 83.1738 15.48 82.5498 16.68C81.9498 17.88 81.6498 19.26 81.6498 20.82C81.6498 22.38 81.9498 23.784 82.5498 25.032C83.1498 26.256 83.9778 27.228 85.0338 27.948C86.0898 28.644 87.2898 28.992 88.6338 28.992ZM104.137 29.28C104.137 29.472 104.065 29.64 103.921 29.784C103.777 29.928 103.609 30 103.417 30C103.201 30 103.021 29.928 102.877 29.784C102.757 29.64 102.697 29.472 102.697 29.28V4.08C102.697 3.888 102.769 3.72 102.913 3.576C103.057 3.432 103.225 3.36 103.417 3.36C103.633 3.36 103.801 3.432 103.921 3.576C104.065 3.72 104.137 3.888 104.137 4.08V29.28ZM118.278 11.82C119.886 11.82 121.314 12.216 122.562 13.008C123.81 13.8 124.794 14.892 125.514 16.284C126.258 17.652 126.63 19.224 126.63 21C126.63 22.752 126.258 24.324 125.514 25.716C124.794 27.108 123.798 28.212 122.526 29.028C121.278 29.82 119.862 30.216 118.278 30.216C117.486 30.216 116.718 30.108 115.974 29.892C115.254 29.652 114.582 29.328 113.958 28.92C113.334 28.488 112.758 27.96 112.23 27.336C111.726 26.712 111.282 26.004 110.898 25.212L111.366 24.708V36.48C111.366 36.672 111.294 36.84 111.15 36.984C111.03 37.128 110.862 37.2 110.646 37.2C110.454 37.2 110.286 37.128 110.142 36.984C109.998 36.84 109.926 36.672 109.926 36.48V12.54C109.926 12.348 109.986 12.18 110.106 12.036C110.25 11.892 110.43 11.82 110.646 11.82C110.862 11.82 111.03 11.892 111.15 12.036C111.294 12.18 111.366 12.348 111.366 12.54V17.148L110.898 16.896C111.234 16.008 111.654 15.24 112.158 14.592C112.662 13.944 113.238 13.416 113.886 13.008C114.534 12.6 115.23 12.3 115.974 12.108C116.718 11.916 117.486 11.82 118.278 11.82ZM118.206 13.188C116.838 13.188 115.626 13.524 114.57 14.196C113.538 14.868 112.722 15.792 112.122 16.968C111.522 18.12 111.222 19.464 111.222 21C111.222 22.512 111.522 23.868 112.122 25.068C112.722 26.244 113.538 27.168 114.57 27.84C115.626 28.512 116.838 28.848 118.206 28.848C119.55 28.848 120.738 28.512 121.77 27.84C122.826 27.168 123.654 26.244 124.254 25.068C124.878 23.868 125.19 22.512 125.19 21C125.19 19.488 124.878 18.144 124.254 16.968C123.654 15.792 122.826 14.868 121.77 14.196C120.738 13.524 119.55 13.188 118.206 13.188ZM132.557 29.28C132.557 29.472 132.485 29.64 132.341 29.784C132.197 29.928 132.029 30 131.837 30C131.621 30 131.441 29.928 131.297 29.784C131.177 29.64 131.117 29.472 131.117 29.28V12.18C131.117 11.988 131.189 11.82 131.333 11.676C131.477 11.532 131.645 11.46 131.837 11.46C132.053 11.46 132.221 11.532 132.341 11.676C132.485 11.82 132.557 11.988 132.557 12.18V29.28ZM131.837 9.012C131.453 9.012 131.141 8.904 130.901 8.688C130.685 8.472 130.577 8.196 130.577 7.86V7.572C130.577 7.236 130.697 6.96 130.937 6.744C131.177 6.528 131.489 6.42 131.873 6.42C132.209 6.42 132.485 6.528 132.701 6.744C132.941 6.96 133.061 7.236 133.061 7.572V7.86C133.061 8.196 132.941 8.472 132.701 8.688C132.485 8.904 132.197 9.012 131.837 9.012ZM136.519 11.892H144.871C145.063 11.892 145.219 11.964 145.339 12.108C145.483 12.252 145.555 12.408 145.555 12.576C145.555 12.768 145.483 12.936 145.339 13.08C145.219 13.2 145.063 13.26 144.871 13.26H136.519C136.351 13.26 136.195 13.188 136.051 13.044C135.907 12.9 135.835 12.744 135.835 12.576C135.835 12.384 135.907 12.228 136.051 12.108C136.195 11.964 136.351 11.892 136.519 11.892ZM140.191 6.6C140.407 6.6 140.575 6.672 140.695 6.816C140.839 6.96 140.911 7.128 140.911 7.32V26.076C140.911 26.868 141.007 27.456 141.199 27.84C141.415 28.2 141.679 28.44 141.991 28.56C142.303 28.656 142.603 28.704 142.891 28.704C143.059 28.704 143.203 28.68 143.323 28.632C143.443 28.584 143.587 28.56 143.755 28.56C143.923 28.56 144.067 28.632 144.187 28.776C144.307 28.896 144.367 29.04 144.367 29.208C144.367 29.424 144.223 29.616 143.935 29.784C143.671 29.928 143.335 30 142.927 30C142.783 30 142.519 30 142.135 30C141.775 29.976 141.379 29.868 140.947 29.676C140.539 29.46 140.191 29.088 139.903 28.56C139.615 28.008 139.471 27.204 139.471 26.148V7.32C139.471 7.128 139.543 6.96 139.687 6.816C139.831 6.672 139.999 6.6 140.191 6.6ZM157.13 30.36C155.33 30.36 153.734 29.976 152.342 29.208C150.974 28.44 149.894 27.36 149.102 25.968C148.31 24.552 147.914 22.896 147.914 21C147.914 18.984 148.298 17.268 149.066 15.852C149.858 14.436 150.866 13.356 152.09 12.612C153.338 11.844 154.658 11.46 156.05 11.46C157.058 11.46 158.042 11.628 159.002 11.964C159.962 12.276 160.814 12.78 161.558 13.476C162.326 14.148 162.938 15 163.394 16.032C163.874 17.04 164.138 18.252 164.186 19.668C164.186 19.86 164.114 20.04 163.97 20.208C163.826 20.352 163.658 20.424 163.466 20.424H148.778L148.562 19.056H163.07L162.71 19.38V18.732C162.59 17.46 162.182 16.392 161.486 15.528C160.814 14.664 159.998 14.016 159.038 13.584C158.078 13.128 157.082 12.9 156.05 12.9C155.33 12.9 154.574 13.068 153.782 13.404C152.99 13.716 152.258 14.208 151.586 14.88C150.914 15.528 150.362 16.356 149.93 17.364C149.522 18.372 149.318 19.548 149.318 20.892C149.318 22.356 149.606 23.7 150.182 24.924C150.782 26.148 151.658 27.132 152.81 27.876C153.986 28.62 155.426 28.992 157.13 28.992C157.946 28.992 158.714 28.86 159.434 28.596C160.154 28.308 160.802 27.936 161.378 27.48C161.954 27.024 162.422 26.532 162.782 26.004C162.974 25.788 163.178 25.68 163.394 25.68C163.562 25.68 163.706 25.752 163.826 25.896C163.946 26.016 164.006 26.16 164.006 26.328C164.006 26.496 163.958 26.64 163.862 26.76C163.118 27.72 162.158 28.56 160.982 29.28C159.83 30 158.546 30.36 157.13 30.36ZM183.633 3.54C183.921 3.54 184.257 3.564 184.641 3.612C185.049 3.66 185.397 3.756 185.685 3.9C185.997 4.044 186.153 4.26 186.153 4.548C186.153 4.716 186.081 4.884 185.937 5.052C185.817 5.196 185.661 5.268 185.469 5.268C185.229 5.268 184.941 5.196 184.605 5.052C184.269 4.908 183.897 4.836 183.489 4.836C183.009 4.836 182.577 4.944 182.193 5.16C181.833 5.376 181.545 5.712 181.329 6.168C181.137 6.6 181.041 7.164 181.041 7.86V29.28C181.041 29.472 180.969 29.64 180.825 29.784C180.681 29.928 180.513 30 180.321 30C180.105 30 179.925 29.928 179.781 29.784C179.661 29.64 179.601 29.472 179.601 29.28V7.86C179.601 6.372 179.997 5.28 180.789 4.584C181.581 3.888 182.529 3.54 183.633 3.54ZM185.289 12.252C185.481 12.252 185.637 12.324 185.757 12.468C185.901 12.588 185.973 12.744 185.973 12.936C185.973 13.128 185.901 13.296 185.757 13.44C185.637 13.56 185.481 13.62 185.289 13.62H176.721C176.553 13.62 176.397 13.548 176.253 13.404C176.109 13.26 176.037 13.104 176.037 12.936C176.037 12.72 176.109 12.552 176.253 12.432C176.397 12.312 176.553 12.252 176.721 12.252H185.289ZM196.339 30.36C194.539 30.36 192.943 29.976 191.551 29.208C190.183 28.44 189.103 27.36 188.311 25.968C187.519 24.552 187.123 22.896 187.123 21C187.123 18.984 187.507 17.268 188.275 15.852C189.067 14.436 190.075 13.356 191.299 12.612C192.547 11.844 193.867 11.46 195.259 11.46C196.267 11.46 197.251 11.628 198.211 11.964C199.171 12.276 200.023 12.78 200.767 13.476C201.535 14.148 202.147 15 202.603 16.032C203.083 17.04 203.347 18.252 203.395 19.668C203.395 19.86 203.323 20.04 203.179 20.208C203.035 20.352 202.867 20.424 202.675 20.424H187.987L187.771 19.056H202.279L201.919 19.38V18.732C201.799 17.46 201.391 16.392 200.695 15.528C200.023 14.664 199.207 14.016 198.247 13.584C197.287 13.128 196.291 12.9 195.259 12.9C194.539 12.9 193.783 13.068 192.991 13.404C192.199 13.716 191.467 14.208 190.795 14.88C190.123 15.528 189.571 16.356 189.139 17.364C188.731 18.372 188.527 19.548 188.527 20.892C188.527 22.356 188.815 23.7 189.391 24.924C189.991 26.148 190.867 27.132 192.019 27.876C193.195 28.62 194.635 28.992 196.339 28.992C197.155 28.992 197.923 28.86 198.643 28.596C199.363 28.308 200.011 27.936 200.587 27.48C201.163 27.024 201.631 26.532 201.991 26.004C202.183 25.788 202.387 25.68 202.603 25.68C202.771 25.68 202.915 25.752 203.035 25.896C203.155 26.016 203.215 26.16 203.215 26.328C203.215 26.496 203.167 26.64 203.071 26.76C202.327 27.72 201.367 28.56 200.191 29.28C199.039 30 197.755 30.36 196.339 30.36ZM209.323 29.28C209.323 29.472 209.251 29.64 209.107 29.784C208.963 29.928 208.795 30 208.603 30C208.387 30 208.207 29.928 208.063 29.784C207.943 29.64 207.883 29.472 207.883 29.28V12.18C207.883 11.988 207.955 11.82 208.099 11.676C208.243 11.532 208.411 11.46 208.603 11.46C208.819 11.46 208.987 11.532 209.107 11.676C209.251 11.82 209.323 11.988 209.323 12.18V29.28ZM208.603 9.012C208.219 9.012 207.907 8.904 207.667 8.688C207.451 8.472 207.343 8.196 207.343 7.86V7.572C207.343 7.236 207.463 6.96 207.703 6.744C207.943 6.528 208.255 6.42 208.639 6.42C208.975 6.42 209.251 6.528 209.467 6.744C209.707 6.96 209.827 7.236 209.827 7.572V7.86C209.827 8.196 209.707 8.472 209.467 8.688C209.251 8.904 208.963 9.012 208.603 9.012ZM213.285 11.892H221.637C221.829 11.892 221.985 11.964 222.105 12.108C222.249 12.252 222.321 12.408 222.321 12.576C222.321 12.768 222.249 12.936 222.105 13.08C221.985 13.2 221.829 13.26 221.637 13.26H213.285C213.117 13.26 212.961 13.188 212.817 13.044C212.673 12.9 212.601 12.744 212.601 12.576C212.601 12.384 212.673 12.228 212.817 12.108C212.961 11.964 213.117 11.892 213.285 11.892ZM216.957 6.6C217.173 6.6 217.341 6.672 217.461 6.816C217.605 6.96 217.677 7.128 217.677 7.32V26.076C217.677 26.868 217.773 27.456 217.965 27.84C218.181 28.2 218.445 28.44 218.757 28.56C219.069 28.656 219.369 28.704 219.657 28.704C219.825 28.704 219.969 28.68 220.089 28.632C220.209 28.584 220.353 28.56 220.521 28.56C220.689 28.56 220.833 28.632 220.953 28.776C221.073 28.896 221.133 29.04 221.133 29.208C221.133 29.424 220.989 29.616 220.701 29.784C220.437 29.928 220.101 30 219.693 30C219.549 30 219.285 30 218.901 30C218.541 29.976 218.145 29.868 217.713 29.676C217.305 29.46 216.957 29.088 216.669 28.56C216.381 28.008 216.237 27.204 216.237 26.148V7.32C216.237 7.128 216.309 6.96 216.453 6.816C216.597 6.672 216.765 6.6 216.957 6.6ZM242.428 20.928C242.428 22.704 242.044 24.312 241.276 25.752C240.508 27.168 239.452 28.296 238.108 29.136C236.788 29.952 235.276 30.36 233.572 30.36C231.892 30.36 230.38 29.952 229.036 29.136C227.692 28.296 226.624 27.168 225.832 25.752C225.064 24.312 224.68 22.704 224.68 20.928C224.68 19.128 225.064 17.52 225.832 16.104C226.624 14.664 227.692 13.536 229.036 12.72C230.38 11.88 231.892 11.46 233.572 11.46C235.276 11.46 236.788 11.88 238.108 12.72C239.452 13.536 240.508 14.664 241.276 16.104C242.044 17.52 242.428 19.128 242.428 20.928ZM240.988 20.928C240.988 19.368 240.664 17.988 240.016 16.788C239.392 15.564 238.516 14.604 237.388 13.908C236.284 13.188 235.012 12.828 233.572 12.828C232.156 12.828 230.884 13.188 229.756 13.908C228.628 14.604 227.74 15.564 227.092 16.788C226.444 17.988 226.12 19.368 226.12 20.928C226.12 22.464 226.444 23.844 227.092 25.068C227.74 26.268 228.628 27.228 229.756 27.948C230.884 28.644 232.156 28.992 233.572 28.992C235.012 28.992 236.284 28.644 237.388 27.948C238.516 27.228 239.392 26.268 240.016 25.068C240.664 23.844 240.988 22.464 240.988 20.928Z" fill="#54FFB1"/>
</svg>
